PathFileType	4	(X/Y/Z)	c:/Users/goper/Files/vsCode/490R/osim_files/C15/C15_Static02.trc
DataRate	CameraRate	NumFrames	NumMarkers	Units                	OrigDataRate	OrigDataStartFrame	OrigNumFrames
250.00	250.00	10	36	mm	250.0	638	1020
                Frame#	Time	LPSIS			LASIS			LTH1			LTH2			LTH3			LTH4			LLFE			LMFE			LSH1			LSH2			LSH3			LSH4			LLMAL			LMMAL			LCAL			LMTP5			LTOE			LMTP1			RPSIS			RASIS			RTH1			RTH2			RTH3			RTH4			RLFE			RMFE			RSH1			RSH2			RSH3			RSH4			RLMAL			RMMAL			RCAL			RMTP1			RTOE			RMTP5		
		X1	Y1	Z1	X2	Y2	Z2	X3	Y3	Z3	X4	Y4	Z4	X5	Y5	Z5	X6	Y6	Z6	X7	Y7	Z7	X8	Y8	Z8	X9	Y9	Z9	X10	Y10	Z10	X11	Y11	Z11	X12	Y12	Z12	X13	Y13	Z13	X14	Y14	Z14	X15	Y15	Z15	X16	Y16	Z16	X17	Y17	Z17	X18	Y18	Z18	X19	Y19	Z19	X20	Y20	Z20	X21	Y21	Z21	X22	Y22	Z22	X23	Y23	Z23	X24	Y24	Z24	X25	Y25	Z25	X26	Y26	Z26	X27	Y27	Z27	X28	Y28	Z28	X29	Y29	Z29	X30	Y30	Z30	X31	Y31	Z31	X32	Y32	Z32	X33	Y33	Z33	X34	Y34	Z34	X35	Y35	Z35	X36	Y36	Z36

638	2.54800	-432.82626	1029.31543	402.05237	-270.14441	1009.13678	329.63171	-357.33167	634.56396	250.98857	-360.29715	587.98480	263.22189	-305.31161	638.48547	252.29115	-306.86563	593.12909	258.72256	-341.64462	500.54938	276.53036	-334.63010	476.72311	395.37558	-410.95099	395.71942	259.44846	-413.98886	353.08798	250.35356	-349.30865	388.41568	255.89824	-359.85492	345.45770	247.12801	-403.05194	84.74225	288.41714	-382.87299	103.92851	379.12158	-463.89966	57.87588	331.66220	-280.84451	35.99750	263.26056	-224.64760	59.10669	326.33612	-260.40387	38.99276	381.52957	-425.37024	1030.28284	521.84662	-268.29041	1006.01605	580.65991	-341.18597	642.95245	652.39563	-341.38202	596.26318	647.09174	-281.59555	637.80103	639.52618	-290.03378	591.75793	638.92920	-336.97006	498.20749	624.82880	-353.55142	474.16629	508.77960	-425.83722	399.62411	649.77423	-427.55469	356.45343	656.88409	-364.20987	389.16544	651.77100	-375.93259	348.92505	659.58698	-416.66452	84.37389	616.88208	-387.53052	103.00516	529.22961	-477.04858	58.31468	572.49292	-273.45285	37.82552	534.99115	-239.25787	55.82641	588.47382	-299.52069	30.93961	653.99310
639	2.55200	-432.85764	1029.33716	402.05136	-270.16675	1009.11426	329.63931	-357.38177	634.57422	250.89565	-361.29605	587.21796	264.10123	-305.33636	638.45172	252.29550	-306.86130	593.10895	258.73877	-341.63519	500.53723	276.53534	-334.62894	476.72797	395.38373	-410.97610	395.70309	259.44449	-413.97998	353.07394	250.36858	-349.32483	388.41705	255.88783	-359.85461	345.42831	247.13062	-403.04053	84.73967	288.40048	-382.88684	103.91777	379.13031	-463.90106	57.87175	331.68323	-280.87534	35.98482	263.26096	-224.64188	59.09427	326.34457	-260.53854	38.86198	381.49207	-425.41873	1030.25049	521.84436	-268.30615	1006.00714	580.68201	-341.16809	642.94763	652.40771	-341.38806	596.28711	647.09711	-281.61560	637.77924	639.53448	-290.03848	591.73657	638.93481	-336.97675	498.16849	624.81238	-353.53830	474.16562	508.77588	-425.82532	399.62100	649.79034	-427.51627	356.46872	656.92859	-364.22861	389.15616	651.80493	-375.92108	348.90280	659.61078	-416.66672	84.38230	616.88080	-387.50821	102.99723	529.21918	-477.06531	58.34415	572.49030	-273.46191	37.80175	534.97418	-239.27942	55.79616	588.48914	-299.50903	30.93833	654.00452
640	2.55600	-432.85870	1029.33618	402.05563	-270.16925	1009.09259	329.61981	-357.35812	634.57678	250.89137	-361.30426	587.19855	264.09448	-305.31616	638.47589	252.28845	-306.88055	593.11298	258.72354	-341.60400	500.53757	276.53140	-334.61743	476.73633	395.38254	-410.96295	395.71240	259.42612	-413.96301	353.07794	250.35948	-349.31784	388.42468	255.88832	-359.84714	345.44553	247.11778	-403.02966	84.74078	288.39572	-382.88147	103.90903	379.11392	-463.87057	57.87461	331.64230	-280.87250	35.98140	263.26535	-224.65997	59.07716	326.33557	-260.40872	38.96630	381.54309	-425.17734	1030.22961	521.90265	-268.32126	1006.00653	580.67407	-341.18597	642.94531	652.40961	-341.42331	596.29340	647.08948	-281.62485	637.76392	639.51208	-290.04987	591.73633	638.94586	-337.02441	498.18091	624.84930	-353.54800	474.16287	508.78381	-425.83115	399.63754	649.80530	-427.53876	356.46982	656.93018	-364.24042	389.15488	651.79614	-375.93527	348.89612	659.60364	-416.70331	84.38188	616.86731	-387.50156	103.01094	529.22650	-477.07031	58.31845	572.51923	-273.48550	37.76147	534.97974	-239.30661	55.77588	588.47137	-299.54346	30.92530	654.02106
641	2.56000	-432.85123	1029.34338	402.06430	-270.19095	1009.07684	329.62811	-357.36685	634.57758	250.91452	-361.30161	587.17529	264.10291	-305.32367	638.47150	252.28378	-306.87479	593.10175	258.72382	-341.59692	500.53485	276.53613	-334.63910	476.74319	395.37436	-410.95474	395.69476	259.42209	-413.96381	353.05786	250.35931	-349.31363	388.41370	255.89737	-359.82950	345.44498	247.11961	-403.02795	84.71241	288.41000	-382.90506	103.90292	379.13199	-463.88248	57.88578	331.64011	-280.87152	35.97547	263.26910	-224.66896	59.05001	326.33878	-260.42111	38.94671	381.54108	-425.43835	1030.28601	521.84363	-268.35583	1005.96643	580.66028	-341.21188	642.94849	652.42035	-341.44855	596.29871	647.08252	-281.61154	637.77325	639.52838	-290.06897	591.70831	638.93958	-336.99521	498.17459	624.85663	-353.51340	474.17920	508.79623	-425.83279	399.62436	649.80334	-427.53705	356.48029	656.93164	-364.23804	389.13489	651.78473	-375.95010	348.87256	659.60065	-416.68976	84.38909	616.89478	-387.49243	103.01360	529.22784	-477.06711	58.31548	572.53516	-273.48294	37.75981	534.98010	-239.32408	55.75531	588.48096	-299.53955	30.91327	654.02563
642	2.56400	-432.87692	1029.38477	402.07681	-270.15930	1009.07544	329.62668	-357.33508	634.58398	250.91290	-361.32977	587.16895	264.13632	-305.32056	638.45459	252.28461	-306.83871	593.11066	258.72873	-341.57751	500.54785	276.53995	-334.60922	476.75476	395.36621	-410.92609	395.67123	259.42392	-413.94955	353.07532	250.32645	-349.29535	388.42184	255.89294	-359.79395	345.44547	247.11595	-403.00745	84.72881	288.41595	-382.89243	103.91859	379.13336	-463.88013	57.94165	331.59659	-280.86218	35.97127	263.27924	-224.65750	59.04608	326.34619	-260.58176	38.82742	381.51227	-425.41394	1030.29749	521.85419	-268.32486	1005.97144	580.67102	-341.21344	642.95782	652.41815	-341.40881	596.31708	647.12555	-281.60980	637.79858	639.53247	-290.04843	591.72552	638.95514	-337.05228	498.12296	624.79382	-353.49591	474.17413	508.81595	-425.81720	399.65631	649.81671	-427.54553	356.49280	656.92914	-364.24527	389.12897	651.80487	-375.92740	348.87079	659.61407	-416.67398	84.38845	616.88293	-387.49756	102.99563	529.23444	-477.05588	58.34618	572.54895	-273.46826	37.74559	534.99731	-239.31606	55.74117	588.47144	-299.52686	30.91643	654.02783
643	2.56800	-432.87180	1029.42456	402.10147	-270.15521	1009.07611	329.61929	-357.34445	634.57892	250.93294	-361.29126	587.18384	264.15860	-305.28055	638.47064	252.29881	-306.82578	593.09741	258.72110	-341.54971	500.54199	276.54977	-334.58279	476.77133	395.33548	-410.92578	395.69040	259.45020	-413.91046	353.08643	250.33722	-349.27463	388.42010	255.91679	-359.78729	345.44141	247.12321	-402.97971	84.75209	288.42685	-382.85532	103.91283	379.14532	-463.86560	57.96649	331.59283	-280.84818	35.96678	263.30212	-224.61328	59.05817	326.34906	-260.55530	38.81444	381.51804	-425.46179	1030.34326	521.89252	-268.34302	1005.95288	580.68634	-341.12314	642.97656	652.44269	-341.38440	596.32544	647.15790	-281.58661	637.77985	639.51752	-290.05859	591.70398	638.96692	-337.01736	498.13019	624.82538	-353.44751	474.20630	508.81238	-425.77774	399.65973	649.84833	-427.52493	356.50681	656.96118	-364.19589	389.11539	651.80896	-375.91580	348.87717	659.62311	-416.60608	84.42675	616.90240	-387.47665	103.02704	529.23334	-477.05228	58.36434	572.57404	-273.46472	37.72588	534.99615	-239.29907	55.73396	588.47986	-299.48819	30.94032	654.02911
644	2.57200	-432.85461	1029.43115	402.12335	-270.12503	1009.05499	329.65451	-357.33432	634.59979	250.94733	-360.30389	587.88239	263.26776	-305.28543	638.45612	252.31429	-306.81964	593.09760	258.75043	-341.53552	500.55847	276.57104	-334.55264	476.75372	395.35254	-410.90720	395.73126	259.45978	-413.89630	353.12283	250.33939	-349.23294	388.39856	255.93817	-359.77295	345.45023	247.14262	-402.96869	84.76527	288.42493	-382.83588	103.90436	379.16672	-463.87250	58.02391	331.57736	-280.91525	35.83479	263.41483	-224.59328	59.03774	326.36145	-260.52289	38.82788	381.54236	-425.44656	1030.36792	521.90387	-268.34271	1005.91754	580.70483	-341.12900	642.96594	652.47144	-341.31229	596.32709	647.16907	-281.58179	637.73969	639.51874	-290.02502	591.69781	638.96509	-337.02100	498.09375	624.82440	-353.45944	474.21396	508.83670	-425.74533	399.66104	649.85486	-427.47110	356.48077	656.97424	-364.18149	389.10550	651.81573	-375.88705	348.86572	659.63837	-416.62000	84.38430	616.88361	-387.44431	103.01846	529.25543	-477.03018	58.37963	572.59259	-273.43585	37.70844	535.01343	-239.26973	55.73959	588.51440	-299.47211	30.93193	654.03815
645	2.57600	-432.85526	1029.45349	402.13007	-270.12244	1009.05139	329.64951	-357.32425	634.59814	250.95964	-360.28738	587.87952	263.31018	-305.24811	638.47107	252.32027	-306.79297	593.09814	258.75516	-341.52820	500.56390	276.56702	-334.48856	476.77341	395.35843	-410.87454	395.73203	259.47333	-413.85919	353.13052	250.33736	-349.22626	388.41489	255.93173	-359.74927	345.44431	247.15549	-402.96671	84.76509	288.43539	-382.81683	103.92917	379.15878	-463.87140	58.03367	331.58389	-280.90833	35.82931	263.40912	-224.59204	59.04915	326.36362	-260.52249	38.80221	381.55353	-425.41351	1030.37317	521.91852	-268.29056	1005.94293	580.70673	-341.09183	642.97571	652.46350	-341.30716	596.33807	647.19415	-281.53827	637.77557	639.54193	-290.01767	591.69440	638.96863	-337.01593	498.08710	624.82153	-353.41049	474.21683	508.83295	-425.74591	399.65915	649.85266	-427.46390	356.49295	656.96851	-364.19501	389.11008	651.82819	-375.85559	348.87030	659.63220	-416.61646	84.40305	616.90326	-387.43167	103.00973	529.25629	-477.01547	58.37781	572.58734	-273.45837	37.69961	535.02539	-239.24962	55.72979	588.50372	-299.45044	30.95033	654.02686
646	2.58000	-432.83954	1029.43567	402.12909	-270.11328	1009.05334	329.64749	-357.29593	634.58655	250.95769	-361.26883	587.21313	264.21008	-305.26025	638.44818	252.31116	-306.79724	593.10254	258.74872	-341.53522	500.55307	276.58096	-334.47302	476.77167	395.35004	-410.87793	395.91711	259.27603	-413.87466	353.12256	250.34293	-349.18945	388.41220	255.94319	-359.73056	345.44629	247.15312	-402.96213	84.76668	288.44128	-382.83609	103.92146	379.15909	-463.88394	58.05614	331.55930	-280.83731	35.95777	263.32111	-224.60606	59.05190	326.37189	-260.53552	38.80758	381.55576	-425.41327	1030.36780	521.90082	-268.28375	1005.95367	580.69763	-341.10297	642.96423	652.45282	-341.29761	596.33228	647.18365	-281.54071	637.78564	639.54095	-290.02194	591.69287	638.98004	-336.98676	498.13297	624.84399	-353.41760	474.20758	508.82031	-425.74951	399.65152	649.84802	-427.45099	356.48224	656.96887	-364.18707	389.11816	651.82538	-375.85193	348.87527	659.64087	-416.61423	84.41293	616.90912	-387.40967	103.01132	529.24945	-477.02847	58.37786	572.57794	-273.46066	37.72192	535.03284	-239.26645	55.74347	588.50031	-299.45255	30.93895	654.01355
647	2.58400	-432.83630	1029.42383	402.09930	-270.10916	1009.05566	329.67886	-357.31430	634.58301	250.97168	-361.25720	587.20532	264.22610	-305.26154	638.46301	252.34358	-306.78772	593.09338	258.76410	-341.52206	500.53995	276.57272	-334.50476	476.77866	395.37610	-410.88574	395.73254	259.49384	-413.87961	353.11966	250.36218	-349.19641	388.41922	255.95728	-359.72961	345.44519	247.16400	-402.97852	84.76117	288.43106	-382.85080	103.91235	379.16257	-463.91476	58.05218	331.54605	-280.90952	35.82206	263.40878	-224.61641	59.04297	326.37076	-260.57025	38.81001	381.55453	-425.43137	1030.35693	521.87622	-268.32065	1005.95123	580.69366	-341.13028	642.97760	652.44971	-341.34473	596.33508	647.17676	-281.53806	637.77142	639.54041	-290.01782	591.69580	638.97009	-337.02441	498.10074	624.83215	-353.45395	474.18661	508.82605	-425.76910	399.63647	649.83948	-427.48526	356.47748	656.96600	-364.19702	389.10776	651.83337	-375.86380	348.87479	659.64856	-416.65219	84.39620	616.88873	-387.44476	103.01337	529.26031	-477.03598	58.36058	572.54651	-273.45709	37.71925	535.04041	-239.29398	55.73731	588.52014	-299.47296	30.94659	654.02515
